<svg width="737" height="701" viewBox="0 0 737 701" fill="none" xmlns="http://www.w3.org/2000/svg">
<path d="M386.468 0C277.472 0 180.117 49.7358 115.831 127.761C113.979 127.232 112.074 126.809 110.152 126.456L39.3397 113.369C21.2972 110.054 3.88968 122.029 0.556319 140.072C-2.77704 158.132 9.21601 175.539 27.2409 178.855L75.9538 187.85C50.4509 236.439 36.024 291.766 36.024 350.479C36.024 544.025 192.939 700.957 386.503 700.957C580.085 700.957 737 544.043 737 350.479C736.965 156.897 580.05 0 386.468 0ZM255.797 547.764C255.091 548.522 254.174 548.787 253.839 548.787C253.045 548.787 252.093 548.434 251.493 547.852C250.929 547.305 250.594 546.547 250.594 545.806C250.576 544.29 252.005 542.896 253.574 542.879C253.592 542.879 253.61 542.879 253.61 542.879C255.179 542.879 256.52 544.149 256.555 545.683C256.626 546.512 256.361 547.182 255.797 547.764ZM523.63 547.852C523.065 548.434 522.236 548.769 521.407 548.769C521.019 548.769 520.314 548.54 519.714 548.046C519.115 547.552 518.603 546.812 518.603 545.789C518.585 544.201 519.926 542.861 521.548 542.861C523.171 542.861 524.476 544.149 524.494 545.771C524.494 546.141 524.406 547.076 523.63 547.852Z" fill="white"/>
<path d="M587.348 495.731H234.911C229.761 495.731 224.858 494.214 220.696 491.586C214.788 487.83 210.361 481.833 208.827 474.655L146.022 183.947C141.789 164.335 126.304 149.326 106.586 145.675L35.7916 132.588C28.3135 131.213 21.1353 136.151 19.7597 143.629C18.384 151.107 23.3223 158.285 30.8003 159.661L101.595 172.747C110.36 174.37 117.238 181.037 119.126 189.749L181.913 480.457C184.523 492.539 191.243 503.456 200.872 511.198C210.484 518.959 222.583 523.227 234.929 523.227H236.622C229.303 528.765 224.911 537.689 225.352 547.248C225.917 559.77 235.352 570.846 247.628 573.456C248.545 573.651 249.444 574.003 250.344 574.268H256.905C257.751 574.003 258.562 573.686 259.409 573.474C271.226 570.582 278.862 563.209 281.314 551.358C283.677 539.858 279.656 530.405 270.538 523.209H504.561C504.543 523.227 504.526 523.244 504.508 523.244C495.337 530.687 491.474 540.317 494.032 551.816C496.624 563.456 504.244 570.67 515.901 573.474C516.766 573.686 517.577 573.986 518.424 574.25H524.984C525.813 573.986 526.625 573.651 527.471 573.439C538.776 570.635 546.254 563.65 549.023 552.398C551.792 541.093 548.177 531.516 539.394 523.897C539.129 523.668 538.847 523.438 538.53 523.191H587.348C594.95 523.191 601.123 517.019 601.123 509.417C601.105 501.886 594.95 495.731 587.348 495.731ZM253.853 562.416C244.717 562.539 237.345 555.326 237.063 546.296C236.816 538.077 243.024 529.435 253.571 529.276C262.672 529.153 270.009 536.472 270.132 545.59C270.238 554.832 263.025 562.292 253.853 562.416ZM521.651 562.416C512.498 562.469 505.02 555.114 504.949 545.961C504.878 536.842 512.251 529.276 521.439 529.294C531.51 529.312 538.071 537.283 538.106 545.749C538.159 554.938 530.84 562.345 521.651 562.416Z" fill="#E60549"/>
<path d="M511.79 261.887C530.097 271.04 539.251 279.083 539.251 286.667C539.251 292.028 527.416 303.404 514.912 309.665C500.397 317.037 476.957 323.951 452.177 328.202C428.967 331.993 362.67 332.893 345.033 329.542L334.98 327.531L353.958 322.628C387.891 313.704 431.19 290.476 464.453 263.245C482.777 248.271 483.889 248.271 511.79 261.887ZM489.021 153.402C510.009 162.327 499.074 192.468 461.79 228.624C421.154 267.919 370.942 294.021 319.813 302.064C286.55 307.425 253.286 300.494 249.935 287.337C247.925 279.083 255.297 273.28 280.077 263.897C352.406 236.666 359.76 232.645 412.001 193.809C454.417 162.115 464.682 155.413 474.065 152.503C477.416 151.392 480.308 150.492 480.767 150.492C480.996 150.281 484.788 151.604 489.021 153.402ZM464.241 127.512C449.514 132.644 437.68 140.457 394.822 172.821C354.646 203.174 331.418 215.908 284.997 233.086C251.734 245.132 235.896 254.074 228.083 264.779C223.621 270.811 223.392 274.603 222.722 335.098C222.281 376.844 222.951 402.065 224.503 407.426C232.087 433.317 279.424 456.757 340.589 465.24C364.699 468.362 422.953 468.362 447.733 465.011C492.16 459.208 532.566 444.023 550.186 427.056C563.36 414.34 566.041 406.527 566.041 381.747C566.041 358.749 563.36 353.405 552.196 353.405C542.372 353.405 539.251 359.648 539.251 379.754C539.251 395.821 538.581 398.502 533.448 404.534C515.141 426.404 460.678 440.478 394.152 440.478C312 440.478 249.054 418.608 249.054 390.248V382.876L264.239 390.248C295.932 405.874 338.578 413.687 393.94 413.687C429.655 413.687 465.599 409.896 485.917 404.093C500.873 399.631 505.106 386.456 493.73 379.084C489.497 376.174 486.146 376.403 467.839 380.424C437.027 387.126 374.752 388.678 341.047 383.775C284.327 375.292 249.054 357.197 249.054 336.438C249.054 332.205 249.494 328.854 249.953 328.854C250.394 328.854 257.995 332.205 267.149 336.438C345.721 372.823 494.171 364.569 547.293 321.041C582.108 292.469 566.27 251.834 512.019 231.745L501.525 227.954L507.769 218.571C523.624 195.572 529.427 176.154 525.635 159.187C519.603 132.644 491.261 117.899 464.241 127.512Z" fill="#E60549"/>
<path d="M434.134 195.893C410.024 214.43 403.111 220.673 403.111 224.694C403.111 230.497 410.924 237.869 416.956 237.869C427.679 237.869 470.078 205.276 470.078 196.793C470.078 191.66 461.365 181.607 456.903 181.607C454.663 181.59 444.398 188.08 434.134 195.893Z" fill="#E60549"/>
<path d="M253.667 535.94C250.987 535.922 248.447 536.963 246.525 538.885C244.584 540.825 243.526 543.4 243.526 546.116C243.526 548.832 244.584 551.372 246.489 553.224C248.376 555.076 250.898 556.081 253.597 556.081C253.667 556.081 253.72 556.081 253.773 556.081C259.346 555.993 263.703 551.548 263.667 545.993C263.667 540.49 259.17 535.975 253.667 535.94Z" fill="#E60549"/>
<path d="M521.612 535.94C518.896 535.922 516.374 536.945 514.469 538.85C512.529 540.772 511.471 543.347 511.471 546.099C511.489 551.672 515.898 556.046 521.489 556.081H521.542C524.311 556.081 526.886 555.023 528.791 553.101C530.678 551.196 531.701 548.674 531.683 545.993C531.612 540.49 527.097 535.993 521.612 535.94Z" fill="#E60549"/>
</svg>
