<svg width="32" height="32" viewBox="0 0 32 32" fill="none" xmlns="http://www.w3.org/2000/svg">
<path d="M16 2C13.0837 2.00344 10.2878 3.16347 8.22564 5.22563C6.16348 7.28778 5.00345 10.0837 5.00001 13C4.99652 15.3832 5.77499 17.7018 7.21601 19.6C7.21601 19.6 7.51601 19.995 7.56501 20.052L16 30L24.439 20.047C24.483 19.994 24.784 19.6 24.784 19.6L24.785 19.597C26.2253 17.6996 27.0034 15.3821 27 13C26.9966 10.0837 25.8365 7.28778 23.7744 5.22563C21.7122 3.16347 18.9163 2.00344 16 2ZM16 17C15.2089 17 14.4355 16.7654 13.7777 16.3259C13.1199 15.8864 12.6072 15.2616 12.3045 14.5307C12.0017 13.7998 11.9225 12.9956 12.0769 12.2196C12.2312 11.4437 12.6122 10.731 13.1716 10.1716C13.731 9.61216 14.4437 9.2312 15.2197 9.07686C15.9956 8.92252 16.7998 9.00173 17.5307 9.30448C18.2616 9.60723 18.8864 10.1199 19.3259 10.7777C19.7654 11.4355 20 12.2089 20 13C19.9987 14.0605 19.5768 15.0771 18.827 15.827C18.0771 16.5768 17.0605 16.9987 16 17Z" fill="#E60549"/>
<path d="M15.9352 8.90918C14.6714 8.90918 13.5425 9.48971 12.7971 10.4005C12.7757 10.3943 12.7536 10.3893 12.7313 10.3852L11.9102 10.2325C11.701 10.1938 11.4992 10.3335 11.4606 10.5441C11.4219 10.7549 11.561 10.9581 11.77 10.9968L12.3348 11.1018C12.0391 11.669 11.8718 12.3148 11.8718 13.0001C11.8718 15.2592 13.6912 17.091 15.9356 17.091C18.1801 17.091 19.9996 15.2594 19.9996 13.0001C19.9991 10.7405 18.1797 8.90918 15.9352 8.90918ZM14.42 15.3029C14.4119 15.3117 14.4012 15.3148 14.3973 15.3148C14.3881 15.3148 14.3771 15.3107 14.3701 15.3039C14.3636 15.2975 14.3597 15.2887 14.3597 15.28C14.3595 15.2623 14.3761 15.2461 14.3943 15.2458C14.3945 15.2458 14.3947 15.2458 14.3947 15.2458C14.4129 15.2458 14.4284 15.2607 14.4288 15.2786C14.4297 15.2883 14.4266 15.2961 14.42 15.3029ZM17.5255 15.3039C17.519 15.3107 17.5094 15.3146 17.4998 15.3146C17.4953 15.3146 17.4871 15.3119 17.4801 15.3062C17.4732 15.3004 17.4673 15.2918 17.4673 15.2798C17.4671 15.2613 17.4826 15.2456 17.5014 15.2456C17.5202 15.2456 17.5354 15.2607 17.5356 15.2796C17.5356 15.2839 17.5345 15.2948 17.5255 15.3039Z" fill="white"/>
<path d="M18.2644 14.6955H14.1779C14.1182 14.6955 14.0613 14.6778 14.0131 14.6471C13.9445 14.6033 13.8932 14.5333 13.8754 14.4495L13.1472 11.0563C13.0981 10.8274 12.9186 10.6522 12.69 10.6095L11.8691 10.4568C11.7824 10.4407 11.6992 10.4984 11.6832 10.5857C11.6673 10.673 11.7245 10.7567 11.8112 10.7728L12.6321 10.9255C12.7337 10.9445 12.8135 11.0223 12.8354 11.124L13.5634 14.5172C13.5936 14.6583 13.6715 14.7857 13.7832 14.8761C13.8947 14.9666 14.0349 15.0165 14.1781 15.0165H14.1977C14.1128 15.0811 14.0619 15.1853 14.067 15.2968C14.0736 15.443 14.183 15.5723 14.3253 15.6028C14.336 15.605 14.3464 15.6091 14.3568 15.6122H14.4329C14.4427 15.6091 14.4521 15.6054 14.4619 15.603C14.5989 15.5692 14.6875 15.4832 14.7159 15.3448C14.7433 15.2106 14.6967 15.1003 14.591 15.0163H17.3044C17.3042 15.0165 17.304 15.0167 17.3038 15.0167C17.1975 15.1035 17.1527 15.2159 17.1824 15.3502C17.2124 15.486 17.3008 15.5702 17.4359 15.603C17.446 15.6054 17.4554 15.6089 17.4652 15.612H17.5413C17.5509 15.6089 17.5603 15.605 17.5701 15.6026C17.7012 15.5698 17.7879 15.4883 17.82 15.357C17.8521 15.225 17.8102 15.1132 17.7083 15.0243C17.7053 15.0216 17.702 15.0189 17.6983 15.0161H18.2644C18.3525 15.0161 18.4241 14.944 18.4241 14.8553C18.4239 14.7674 18.3525 14.6955 18.2644 14.6955ZM14.3975 15.4739C14.2916 15.4753 14.2061 15.3911 14.2028 15.2857C14.2 15.1898 14.2719 15.0889 14.3942 15.0871C14.4998 15.0856 14.5848 15.1711 14.5863 15.2775C14.5875 15.3854 14.5038 15.4725 14.3975 15.4739ZM17.5026 15.4739C17.3965 15.4745 17.3098 15.3887 17.3089 15.2818C17.3081 15.1754 17.3936 15.0871 17.5001 15.0873C17.6169 15.0875 17.693 15.1805 17.6934 15.2794C17.694 15.3866 17.6091 15.4731 17.5026 15.4739Z" fill="#E60549"/>
<path d="M17.3883 11.966C17.6005 12.0729 17.7067 12.1667 17.7067 12.2553C17.7067 12.3178 17.5695 12.4506 17.4245 12.5237C17.2562 12.6098 16.9844 12.6904 16.6971 12.7401C16.4279 12.7843 15.6592 12.7948 15.4547 12.7557L15.3382 12.7322L15.5582 12.675C15.9517 12.5708 16.4537 12.2997 16.8394 11.9819C17.0519 11.8071 17.0648 11.8071 17.3883 11.966ZM17.1243 10.6997C17.3676 10.8039 17.2408 11.1557 16.8085 11.5778C16.3373 12.0364 15.7551 12.3411 15.1623 12.435C14.7766 12.4976 14.3909 12.4166 14.3521 12.2631C14.3288 12.1667 14.4142 12.099 14.7016 11.9895C15.5402 11.6716 15.6255 11.6247 16.2312 11.1714C16.723 10.8014 16.8421 10.7232 16.9508 10.6892C16.9897 10.6763 17.0232 10.6658 17.0286 10.6658C17.0312 10.6633 17.0752 10.6787 17.1243 10.6997ZM16.8369 10.3975C16.6662 10.4574 16.529 10.5486 16.032 10.9264C15.5662 11.2807 15.2969 11.4293 14.7586 11.6298C14.3729 11.7704 14.1893 11.8748 14.0987 11.9998C14.047 12.0702 14.0443 12.1144 14.0365 12.8206C14.0314 13.3078 14.0392 13.6022 14.0572 13.6648C14.1451 13.967 14.694 14.2406 15.4032 14.3396C15.6828 14.3761 16.3582 14.3761 16.6455 14.3369C17.1607 14.2692 17.6292 14.092 17.8335 13.8939C17.9862 13.7455 18.0173 13.6543 18.0173 13.3651C18.0173 13.0966 17.9862 13.0342 17.8568 13.0342C17.7429 13.0342 17.7067 13.1071 17.7067 13.3418C17.7067 13.5293 17.6989 13.5606 17.6394 13.631C17.4271 13.8863 16.7956 14.0506 16.0243 14.0506C15.0717 14.0506 14.3419 13.7953 14.3419 13.4643V13.3782L14.5179 13.4643C14.8854 13.6467 15.3799 13.7379 16.0218 13.7379C16.4359 13.7379 16.8527 13.6936 17.0883 13.6259C17.2617 13.5738 17.3108 13.42 17.1789 13.334C17.1298 13.3 17.0909 13.3027 16.8787 13.3496C16.5214 13.4279 15.7993 13.446 15.4085 13.3887C14.7509 13.2897 14.3419 13.0785 14.3419 12.8362C14.3419 12.7868 14.347 12.7477 14.3523 12.7477C14.3574 12.7477 14.4455 12.7868 14.5517 12.8362C15.4627 13.2609 17.184 13.1646 17.7999 12.6565C18.2036 12.323 18.02 11.8487 17.3909 11.6142L17.2692 11.5699L17.3416 11.4604C17.5255 11.192 17.5928 10.9653 17.5488 10.7673C17.4789 10.4574 17.1502 10.2853 16.8369 10.3975Z" fill="#E60549"/>
<path d="M16.4878 11.1957C16.2083 11.4121 16.1281 11.485 16.1281 11.5319C16.1281 11.5996 16.2187 11.6857 16.2887 11.6857C16.413 11.6857 16.9046 11.3052 16.9046 11.2062C16.9046 11.1463 16.8036 11.029 16.7519 11.029C16.7259 11.0288 16.6069 11.1045 16.4878 11.1957Z" fill="#E60549"/>
<path d="M14.3954 15.1649C14.3643 15.1646 14.3348 15.1768 14.3125 15.1992C14.29 15.2219 14.2778 15.2519 14.2778 15.2836C14.2778 15.3153 14.29 15.345 14.3121 15.3666C14.334 15.3882 14.3632 15.4 14.3945 15.4C14.3954 15.4 14.396 15.4 14.3966 15.4C14.4612 15.3989 14.5117 15.347 14.5113 15.2822C14.5113 15.218 14.4592 15.1653 14.3954 15.1649Z" fill="#E60549"/>
<path d="M17.5022 15.1649C17.4707 15.1646 17.4414 15.1766 17.4193 15.1988C17.3968 15.2213 17.3846 15.2513 17.3846 15.2834C17.3848 15.3485 17.4359 15.3995 17.5007 15.4H17.5013C17.5334 15.4 17.5633 15.3876 17.5854 15.3652C17.6073 15.3429 17.6191 15.3135 17.6189 15.2822C17.6181 15.218 17.5658 15.1655 17.5022 15.1649Z" fill="#E60549"/>
</svg>
